#!OML:ASF F:\VICON\USERDATA\INSTALL\rory3\rory3.ASF
:FULLY-SPECIFIED
:DEGREES
257
root 1.56206 17.7335 1.86505 369.116 -61.6732 -359.061
lowerback 8.84751 -0.811023 -2.56514
upperback 6.28253 -1.49109 5.51163
thorax 1.81191 -1.04238 7.33567
lowerneck -11.5446 -0.483872 -13.659
upperneck 39.7447 2.90187 -3.20929
head 16.2276 -1.67151 1.35217
rclavicle -5.88403e-014 3.81667e-014
rhumerus -29.5454 -9.88186 -58.6558
rradius 25.5069
rwrist 18.8746
rhand -20.0605 -3.19807
rfingers 7.12502
rthumb 6.28137 -33.0849
lclavicle -5.88403e-014 3.81667e-014
lhumerus -30.0993 2.56908 81.2889
lradius 52.5693
lwrist -3.25169
lhand -13.7277 24.7003
lfingers 7.12502
lthumb 12.3916 54.313
rfemur -57.1896 -9.9685 13.0482
rtibia 52.3318
rfoot 3.83382 -9.14308
rtoes 6.6323
lfemur -24.6776 -6.13458 -20.4571
ltibia 29.0761
lfoot -9.97619 -18.1796
ltoes 1.58138
258
root 1.49381 17.7372 1.82192 369.27 -60.9369 -359.373
lowerback 8.93604 -0.702403 -2.32454
upperback 6.36395 -1.33126 5.40893
thorax 1.81385 -0.95289 7.07585
lowerneck -11.4908 -0.695174 -13.3775
upperneck 39.7633 2.459 -3.03699
head 16.2378 -1.78002 1.31208
rclavicle 7.95139e-016 -2.22639e-014
rhumerus -30.5515 -10.6403 -58.7567
rradius 25.6645
rwrist 18.961
rhand -20.204 -3.15172
rfingers 7.12502
rthumb 6.14283 -33.0427
lclavicle 7.95139e-016 -2.22639e-014
lhumerus -29.7875 1.98374 81.2906
lradius 52.1983
lwrist -3.27924
lhand -12.455 24.5629
lfingers 7.12502
lthumb 13.6185 54.0974
rfemur -56.3911 -9.83617 12.3607
rtibia 51.7149
rfoot 3.80184 -9.59807
rtoes 7.13431
lfemur -24.495 -6.43308 -20.0445
ltibia 29.0948
lfoot -10.1428 -18.4538
ltoes 0.893023
259
root 1.42436 17.7427 1.77583 369.459 -60.2364 -359.686
lowerback 9.02832 -0.413276 -1.95272
upperback 6.39696 -0.914621 5.16722
thorax 1.7228 -0.720837 6.57278
lowerneck -11.3497 -1.05187 -12.6113
upperneck 39.8956 1.68674 -2.958
head 16.3003 -1.96886 1.09353
rclavicle 2.22639e-014 -3.33958e-014
rhumerus -32.0322 -11.8069 -58.8244
rradius 25.949
rwrist 18.8791
rhand -19.9724 -2.92218
rfingers 7.12502
rthumb 6.36648 -32.8065
lclavicle 2.22639e-014 -3.33958e-014
lhumerus -29.374 0.742002 81.2406
lradius 51.809
lwrist -3.20113
lhand -12.5701 24.1869
lfingers 7.12502
lthumb 13.5076 53.7289
rfemur -55.5837 -9.6231 11.6669
rtibia 51.1055
rfoot 3.73664 -10.2441
rtoes 9.12223
lfemur -24.3788 -6.75216 -19.5831
ltibia 29.1661
lfoot -10.3103 -18.7135
ltoes 0.597393
260
root 1.35525 17.7461 1.72801 369.74 -59.5094 -360.032
lowerback 9.11111 -0.304731 -1.71578
upperback 6.393 -0.748819 5.06637
thorax 1.64427 -0.623847 6.31717
lowerneck -11.2217 -1.22461 -12.1477
upperneck 39.9363 1.28292 -2.92377
head 16.3008 -2.05482 0.965996
rclavicle 2.38542e-014 1.27222e-014
rhumerus -32.9865 -12.5239 -58.9473
rradius 25.9984
rwrist 18.7216
rhand -19.8843 -2.66243
rfingers 7.12502
rthumb 6.45147 -32.5442
lclavicle 2.38542e-014 1.27222e-014
lhumerus -29.2131 0.0493546 81.2313
lradius 51.5847
lwrist -3.0254
lhand -14.0167 23.6088
lfingers 7.12502
lthumb 12.113 53.2382
rfemur -54.8177 -9.40513 11.048
rtibia 50.5367
rfoot 3.68698 -10.9856
rtoes 11.2192
lfemur -24.3481 -7.18202 -19.0362
ltibia 29.2151
lfoot -10.35 -18.9418
ltoes 0.831318
261
root 1.28378 17.7405 1.67571 369.712 -58.8084 -360.03
lowerback 9.16689 -0.448496 -1.95295
upperback 6.42175 -0.957997 5.167
thorax 1.67863 -0.740988 6.57862
lowerneck -11.2466 -1.1627 -12.3579
upperneck 39.934 1.44531 -2.92089
head 16.3023 -2.01763 1.02993
rclavicle 5.56597e-015 2.38542e-014
rhumerus -33.0968 -12.4161 -59.163
rradius 25.7635
rwrist 18.7103
rhand -20.0035 -2.46203
rfingers 7.12502
rthumb 6.33643 -32.3473
lclavicle 5.56597e-015 2.38542e-014
lhumerus -29.3362 0.394228 81.3244
lradius 51.5246
lwrist -2.99592
lhand -14.7354 23.6475
lfingers 7.12502
lthumb 11.42 53.3165
rfemur -54.0926 -9.24221 10.4026
rtibia 50.0389
rfoot 3.8861 -11.6261
rtoes 10.8806
lfemur -24.2737 -7.58542 -18.6904
ltibia 29.1883
lfoot -10.2248 -19.092
ltoes 1.20194
262
root 1.20832 17.7446 1.6199 369.234 -58.2688 -359.567
lowerback 9.06335 -0.668139 -2.60136
upperback 6.59263 -1.30696 5.31847
thorax 1.98723 -0.956524 7.13941
lowerneck -11.5631 -0.997977 -13.0692
upperneck 39.9859 1.90779 -2.77966
head 16.3925 -1.92176 1.28691
rclavicle -4.85035e-014 -3.33958e-014
rhumerus -32.6902 -11.6241 -59.5183
rradius 25.486
rwrist 18.4225
rhand -20.0137 -2.38031
rfingers 7.12502
rthumb 6.32661 -32.2658
lclavicle -4.85035e-014 -3.33958e-014
lhumerus -29.441 1.45169 81.5023
lradius 51.4536
lwrist -3.24318
lhand -13.5692 24.9367
lfingers 7.12502
lthumb 12.5444 54.5401
rfemur -53.2621 -8.8943 9.38371
rtibia 49.5898
rfoot 4.00583 -12.1379
rtoes 10.8145
lfemur -24.0767 -7.70637 -18.6971
ltibia 29.1446
lfoot -10.1402 -19.2762
ltoes 1.36055
263
root 1.13149 17.7546 1.56762 368.577 -57.7559 -358.953
lowerback 8.86368 -0.507344 -2.83646
upperback 6.90726 -1.11527 5.01069
thorax 2.39786 -0.879156 6.92552
lowerneck -11.8585 -1.19154 -12.7974
upperneck 40.009 1.52635 -2.48473
head 16.4833 -1.99029 1.31175
rclavicle 7.95139e-016 -3.73715e-014
rhumerus -33.0211 -12.3432 -59.9819
rradius 25.3401
rwrist 18.206
rhand -20.0113 -2.29532
rfingers 7.12502
rthumb 6.32887 -32.1808
lclavicle 7.95139e-016 -3.73715e-014
lhumerus -28.9094 0.829937 81.4219
lradius 51.216
lwrist -3.25712
lhand -14.3855 24.5664
lfingers 7.12502
lthumb 11.7574 54.2164
rfemur -52.276 -8.45522 8.14504
rtibia 49.1539
rfoot 3.68841 -12.6827
rtoes 12.6037
lfemur -23.8099 -7.8866 -18.8233
ltibia 29.1127
lfoot -10.6548 -19.452
ltoes -1.041
264
root 1.05731 17.759 1.51646 368.654 -57.174 -359.088
lowerback 8.84348 -0.525674 -2.83974
upperback 6.98839 -1.14075 4.94409
thorax 2.49634 -0.894694 6.85678
lowerneck -11.7296 -1.15965 -12.66
upperneck 39.845 1.49407 -2.40132
head 16.3575 -1.95426 1.32473
rclavicle 3.33958e-014 -4.13472e-014
rhumerus -33.3705 -12.1195 -60.547
rradius 25.2735
rwrist 17.7068
rhand -20.0968 -2.38658
rfingers 7.12502
rthumb 6.24636 -32.2745
lclavicle 3.33958e-014 -4.13472e-014
lhumerus -28.8666 0.685629 81.3682
lradius 51.067
lwrist -3.20014
lhand -14.7542 24.3613
lfingers 7.12502
lthumb 11.4018 54.0313
rfemur -51.3658 -7.90992 7.42367
rtibia 48.7147
rfoot 3.37073 -13.2988
rtoes 13.4753
lfemur -23.6837 -8.04619 -18.4673
ltibia 29.0339
lfoot -11.0752 -19.698
ltoes -3.36778
265
root 0.985275 17.7602 1.45959 369.261 -56.5901 -359.787
lowerback 8.95005 -0.21282 -2.47359
upperback 7.03136 -0.699354 4.81968
thorax 2.40878 -0.65254 6.4845
lowerneck -11.7193 -1.45322 -11.7456
upperneck 39.8868 0.862779 -2.50597
head 16.3965 -2.08235 1.02033
rclavicle 2.78299e-015 2.14687e-014
rhumerus -34.3512 -13.1198 -60.8918
rradius 25.3298
rwrist 17.5553
rhand -20.1338 -2.38104
rfingers 7.12502
rthumb 6.21066 -32.27
lclavicle 2.78299e-015 2.14687e-014
lhumerus -28.5425 -0.523887 81.3581
lradius 50.9242
lwrist -3.01923
lhand -14.8772 24.4047
lfingers 7.12502
lthumb 11.2832 54.0812
rfemur -50.5528 -7.34616 7.21132
rtibia 48.2802
rfoot 3.46813 -13.8051
rtoes 13.9567
lfemur -23.6685 -8.10838 -17.7089
ltibia 28.9405
lfoot -10.4231 -20.0545
ltoes -1.33973
266
root 0.909807 17.7693 1.40249 369.672 -56.1195 -360.233
lowerback 9.00069 -0.428436 -2.75747
upperback 6.96895 -1.0086 5.15009
thorax 2.37488 -0.827201 7.02559
lowerneck -11.645 -1.16603 -12.3533
upperneck 39.8777 1.46159 -2.54476
head 16.355 -1.93505 1.20561
rclavicle 9.26337e-014 -1.1291e-013
rhumerus -34.4104 -12.2237 -61.0782
rradius 25.2762
rwrist 17.5315
rhand -20.0297 -2.12592
rfingers 7.12502
rthumb 6.31115 -32.0119
lclavicle 9.26337e-014 -1.1291e-013
lhumerus -29.0522 0.675044 81.5944
lradius 51.005
lwrist -3.15231
lhand -14.7792 24.5086
lfingers 7.12502
lthumb 11.3777 54.1799
rfemur -49.677 -6.60962 6.71766
rtibia 47.8555
rfoot 3.26848 -14.2642
rtoes 16.3043
lfemur -23.6496 -8.16331 -17.1007
ltibia 28.8954
lfoot -10.2739 -20.4146
ltoes -1.05003
267
root 0.83095 17.786 1.34732 369.843 -55.7311 -360.397
lowerback 8.9785 -0.270298 -2.77064
upperback 6.90269 -0.789385 5.06174
thorax 2.28292 -0.707934 6.92294
lowerneck -11.126 -1.17916 -12.3493
upperneck 39.7544 1.22614 -2.20618
head 16.1615 -1.96786 1.32145
rclavicle 1.04163e-013 -5.725e-014
rhumerus -35.2811 -13.1902 -61.0492
rradius 25.23
rwrist 18.015
rhand -19.8279 -1.70699
rfingers 7.12502
rthumb 6.506 -31.5871
lclavicle 1.04163e-013 -5.725e-014
lhumerus -29.2292 0.149695 81.6164
lradius 50.9879
lwrist -2.99517
lhand -14.8526 24.4968
lfingers 7.12502
lthumb 11.3069 54.1721
rfemur -48.7354 -5.64919 5.89217
rtibia 47.4424
rfoot 2.65912 -14.786
rtoes 19.9378
lfemur -23.5782 -8.22242 -16.6732
ltibia 28.8371
lfoot -10.5871 -20.7108
ltoes -2.50889
